<svg xmlns="http://www.w3.org/2000/svg" xmlns:xlink="http://www.w3.org/1999/xlink" xmlns:xodm="http://www.corel.com/coreldraw/odm/2003" xml:space="preserve" version="1.1" style="shape-rendering:geometricPrecision;text-rendering:geometricPrecision;image-rendering:optimizeQuality;" viewBox="0 0 4334.92 5418.65" x="0px" y="0px" fill-rule="evenodd" clip-rule="evenodd"><defs><style type="text/css">
   
    .fil0 {fill:black;fill-rule:nonzero}
   
  </style></defs><g><path class="fil0" d="M980.78 1215.1c56.11,0 101.6,45.49 101.6,101.6 0,56.11 -45.49,101.6 -101.6,101.6l-435.67 0c-77.14,0 -148.36,26.97 -204.69,71.96l1827.04 1526.74 1827.04 -1526.74c-56.33,-44.99 -127.55,-71.96 -204.69,-71.96l-435.67 0c-56.11,0 -101.6,-45.49 -101.6,-101.6 0,-56.11 45.49,-101.6 101.6,-101.6l435.67 0c146.5,0 279.65,59.88 376.1,156.32 96.44,96.45 156.32,229.59 156.32,376.1l0 1620.44c0,146.51 -59.88,279.64 -156.32,376.08 -96.45,96.45 -229.58,156.32 -376.1,156.32l-3244.7 0c-146.52,0 -279.65,-59.87 -376.1,-156.32 -96.44,-96.44 -156.32,-229.57 -156.32,-376.08l0 -1620.44c0,-146.51 59.88,-279.65 156.32,-376.1 96.45,-96.44 229.59,-156.32 376.1,-156.32l435.67 0zm-363.66 2254.95c-56.11,0 -101.6,-45.49 -101.6,-101.6 0,-56.11 45.49,-101.6 101.6,-101.6l336.49 0c56.11,0 101.6,45.49 101.6,101.6 0,56.11 -45.49,101.6 -101.6,101.6l-336.49 0zm1897.1 -2076.05c0,-95.76 -38.82,-182.47 -101.55,-245.21 -62.74,-62.74 -149.44,-101.55 -245.21,-101.55 -95.77,0 -182.47,38.81 -245.21,101.55 -62.74,62.74 -101.55,149.44 -101.55,245.21 0,95.78 38.81,182.48 101.55,245.22 62.74,62.74 149.45,101.56 245.21,101.56 38.04,0 74.29,-5.93 107.82,-16.87 35.09,-11.44 67.7,-28.33 96.78,-49.6 45.15,-33.09 108.6,-23.32 141.69,21.83 33.09,45.15 23.32,108.6 -21.83,141.69 -46.38,33.93 -98.23,60.79 -153.94,78.96 -54.07,17.64 -111.41,27.19 -170.52,27.19 -151.85,0 -289.34,-61.57 -388.87,-161.1 -99.53,-99.53 -161.09,-237.03 -161.09,-388.88 0,-151.84 61.56,-289.34 161.09,-388.87 99.53,-99.53 237.03,-161.09 388.87,-161.09 151.84,0 289.34,61.56 388.87,161.09 99.51,99.53 161.09,237.02 161.09,388.87 0,28.52 11.49,54.28 29.99,72.78l0.39 0.39c18.5,18.5 44.26,29.99 72.78,29.99 28.25,0 54.03,-11.65 72.76,-30.38 18.73,-18.73 30.37,-44.51 30.37,-72.78 0,-208.84 -84.65,-397.91 -221.49,-534.75 -136.84,-136.84 -325.92,-221.49 -534.76,-221.49 -208.84,0 -397.92,84.65 -534.76,221.49 -136.84,136.84 -221.49,325.91 -221.49,534.75 0,208.84 84.65,397.92 221.49,534.76 136.84,136.84 325.92,221.49 534.76,221.49 118.48,0 230.3,-26.99 329.59,-75.11 103.63,-50.22 193.97,-123.21 264.42,-212.34 34.63,-43.84 98.25,-51.3 142.09,-16.67 43.84,34.63 51.3,98.25 16.67,142.09 -89.61,113.39 -204.1,206.01 -335.08,269.48 -126.58,61.35 -268.33,95.75 -417.69,95.75 -264.93,0 -504.79,-107.4 -678.42,-281.03 -173.63,-173.63 -281.03,-413.49 -281.03,-678.42 0,-264.92 107.4,-504.78 281.03,-678.41 173.63,-173.63 413.49,-281.03 678.42,-281.03 264.93,0 504.79,107.4 678.42,281.03 173.63,173.63 281.03,413.49 281.03,678.41 0,84.34 -34.44,160.97 -89.91,216.44 -55.47,55.47 -132.08,89.92 -216.42,89.92 -83.89,0 -160.37,-34.43 -216.05,-89.92l-0.62 -0.63c-55.36,-55.66 -89.69,-132.03 -89.69,-215.81zm-2286.53 266.42c-7.69,27.78 -11.8,56.99 -11.8,87.1l0 1620.44c0,90.42 37.08,172.72 96.78,232.42 59.71,59.71 142,96.78 232.44,96.78l3244.7 0c90.44,0 172.73,-37.07 232.44,-96.78 59.7,-59.7 96.78,-142 96.78,-232.42l0 -1620.44c0,-30.11 -4.11,-59.32 -11.8,-87.1l-1873.72 1565.75c-36.96,31.78 -92.53,33.1 -131.14,0.8l-1874.68 -1566.55z"/></g><text x="0" y="4349.92" fill="#000000" font-size="5px" font-weight="bold" font-family="'Helvetica Neue', Helvetica, Arial-Unicode, Arial, Sans-serif">Created by Sunrise</text><text x="0" y="4354.92" fill="#000000" font-size="5px" font-weight="bold" font-family="'Helvetica Neue', Helvetica, Arial-Unicode, Arial, Sans-serif">from the Noun Project</text></svg>