<svg xmlns="http://www.w3.org/2000/svg" xmlns:xlink="http://www.w3.org/1999/xlink" version="1.1" x="0px" y="0px" viewBox="0 0 32 40" enable-background="new 0 0 32 32" xml:space="preserve"><g><path d="M5.293,12.293L7.586,10L5.293,7.707c-0.391-0.391-0.391-1.023,0-1.414s1.023-0.391,1.414,0L9,8.586l2.293-2.293   c0.391-0.391,1.023-0.391,1.414,0s0.391,1.023,0,1.414L10.414,10l2.293,2.293c0.391,0.391,0.391,1.023,0,1.414   C12.512,13.902,12.256,14,12,14s-0.512-0.098-0.707-0.293L9,11.414l-2.293,2.293C6.512,13.902,6.256,14,6,14   s-0.512-0.098-0.707-0.293C4.902,13.316,4.902,12.684,5.293,12.293z M24.414,10l2.293-2.293c0.391-0.391,0.391-1.023,0-1.414   s-1.023-0.391-1.414,0L23,8.586l-2.293-2.293c-0.391-0.391-1.023-0.391-1.414,0s-0.391,1.023,0,1.414L21.586,10l-2.293,2.293   c-0.391,0.391-0.391,1.023,0,1.414C19.488,13.902,19.744,14,20,14s0.512-0.098,0.707-0.293L23,11.414l2.293,2.293   C25.488,13.902,25.744,14,26,14s0.512-0.098,0.707-0.293c0.391-0.391,0.391-1.023,0-1.414L24.414,10z M5.375,24.219   c-0.432,0.346-0.501,0.975-0.156,1.406c0.344,0.432,0.975,0.501,1.405,0.156c0.095-0.075,9.483-7.415,18.751,0   C25.56,25.929,25.78,26,26,26c0.293,0,0.584-0.129,0.781-0.375c0.345-0.432,0.275-1.061-0.156-1.406   C16.125,15.817,5.482,24.136,5.375,24.219z"/></g><text x="0" y="47" fill="#000000" font-size="5px" font-weight="bold" font-family="'Helvetica Neue', Helvetica, Arial-Unicode, Arial, Sans-serif">Created by RAHMAT DWI CAHYO</text><text x="0" y="52" fill="#000000" font-size="5px" font-weight="bold" font-family="'Helvetica Neue', Helvetica, Arial-Unicode, Arial, Sans-serif">from the Noun Project</text></svg>